<?xml version="1.0" encoding="utf-8"?>
<!-- Generator: Adobe Illustrator 19.1.0, SVG Export Plug-In . SVG Version: 6.00 Build 0)  -->
<svg version="1.1" id="Layer_1" xmlns="http://www.w3.org/2000/svg" xmlns:xlink="http://www.w3.org/1999/xlink" x="0px" y="0px"
	 viewBox="0 0 72.9 72.3" style="enable-background:new 0 0 72.9 72.3;" xml:space="preserve">
<style type="text/css">
	.st0{fill:#262626;}
</style>
<g>
	<path class="st0" d="M33.2,31.5c0,4.8-1.8,8-5.3,9.5l5,18.9c0.2,0.9-0.2,1.3-1,1.3h-7.5c-0.7,0-1.1-0.4-1.2-1l-4.8-18.3h-5V60
		c0,0.7-0.4,1.2-1.2,1.2H4.8c-0.7,0-1.2-0.4-1.2-1.2V4.7C3.6,4,4,3.6,4.8,3.6h18.1c6.8,0,10.4,3.6,10.4,10.4V31.5z M20.5,32.4
		c1.9,0,2.9-1,2.9-2.9V16c0-1.9-1-2.9-2.9-2.9h-7.1v19.3H20.5z"/>
	<path class="st0" d="M69.3,21.7c0,0.7-0.4,1.2-1.2,1.2h-7.2c-0.8,0-1.2-0.4-1.2-1.2V16c0-1.9-1-2.9-2.9-2.9h-3.7
		c-1.9,0-2.9,1-2.9,2.9v32.8c0,1.9,1,2.9,2.9,2.9h3.7c1.9,0,2.9-0.9,2.9-2.9v-5.8c0-0.7,0.4-1.2,1.2-1.2h7.2c0.7,0,1.2,0.4,1.2,1.2
		v7.8c0,6.8-3.7,10.4-10.4,10.4h-8.1c-6.8,0-10.4-3.6-10.4-10.4V14c0-6.8,3.7-10.4,10.4-10.4h8.1c6.7,0,10.4,3.6,10.4,10.4V21.7z"/>
</g>
</svg>
