<?xml version="1.0" encoding="utf-8"?>
<!-- Generator: Adobe Illustrator 19.1.0, SVG Export Plug-In . SVG Version: 6.00 Build 0)  -->
<svg version="1.1" id="Layer_1" xmlns="http://www.w3.org/2000/svg" xmlns:xlink="http://www.w3.org/1999/xlink" x="0px" y="0px"
	 viewBox="0 0 216.3 89.9" style="enable-background:new 0 0 216.3 89.9;" xml:space="preserve">
<g>
	<g>
		<path d="M85.1,31.5c0.9,0,1.4,0.5,1.4,1.4v6.2c0,0.9-0.5,1.4-1.4,1.4h-3v15.6c0,0.9-0.5,1.4-1.4,1.4h-6.3c-0.9,0-1.4-0.5-1.4-1.4
			V40.5H52.4c-0.9,0-1.4-0.5-1.4-1.4v-6.4c0-0.6,0.1-1.2,0.5-1.7l18.5-30C70.3,0.3,70.9,0,71.7,0h7.6c1.2,0,1.6,0.7,0.9,1.7
			l-18.1,30H73V23c0-0.9,0.5-1.4,1.4-1.4h6.3c0.9,0,1.4,0.5,1.4,1.4v8.5H85.1z"/>
		<path d="M93.8,10.4C93.8,3.6,97.4,0,104.1,0h8.1c6.8,0,10.4,3.6,10.4,10.4v36.9c0,6.8-3.6,10.4-10.4,10.4h-8.1
			c-6.8,0-10.4-3.6-10.4-10.4V10.4z M110.4,48.3c1.9,0,2.9-0.9,2.9-2.9V12.2c0-1.9-1-2.9-2.9-2.9h-4.2c-1.9,0-2.9,1-2.9,2.9v33.3
			c0,1.9,1,2.9,2.9,2.9H110.4z"/>
		<path d="M164,31.5c0.9,0,1.4,0.5,1.4,1.4v6.2c0,0.9-0.5,1.4-1.4,1.4h-3v15.6c0,0.9-0.5,1.4-1.4,1.4h-6.3c-0.9,0-1.4-0.5-1.4-1.4
			V40.5h-20.7c-0.9,0-1.4-0.5-1.4-1.4v-6.4c0-0.6,0.1-1.2,0.5-1.7l18.5-30c0.4-0.6,0.9-0.9,1.7-0.9h7.6c1.2,0,1.6,0.7,0.9,1.7
			l-18.1,30h10.9V23c0-0.9,0.5-1.4,1.4-1.4h6.3c0.9,0,1.4,0.5,1.4,1.4v8.5H164z"/>
	</g>
	<g>
		<path d="M0,75.5c0-0.2,0.1-0.3,0.3-0.3h5c2,0,3,1,3,3v4.1c0,2-1,3-3,3l-2.6,0v4.2c0,0.2-0.1,0.3-0.3,0.3l-2.1,0
			c-0.2,0-0.3-0.1-0.3-0.3V75.5z M4.8,82.6c0.6,0,0.8-0.3,0.8-0.8v-3.1c0-0.5-0.3-0.8-0.8-0.8l-2.1,0v4.7L4.8,82.6z"/>
		<path d="M16.7,89.8c-0.2,0-0.3-0.1-0.3-0.3l-0.7-2.6h-3.9l-0.7,2.6c0,0.2-0.1,0.3-0.3,0.3H8.7c-0.2,0-0.3-0.1-0.3-0.4l3.5-14
			c0-0.2,0.2-0.3,0.4-0.3h2.9c0.2,0,0.3,0.1,0.4,0.3l3.5,14c0.1,0.2,0,0.4-0.3,0.4H16.7z M13.7,78.8l-1.3,5.7H15L13.7,78.8z"/>
		<path d="M20.3,78.2c0-2,1-3,3-3h2.4c2,0,3,1,3,3v1.6c0,0.2-0.1,0.3-0.3,0.3h-2c-0.2,0-0.3-0.1-0.3-0.3v-1c0-0.5-0.3-0.8-0.8-0.8
			h-1.3c-0.6,0-0.8,0.3-0.8,0.8v7.6c0,0.6,0.3,0.8,0.8,0.8h1.3c0.5,0,0.8-0.3,0.8-0.8v-1.8H25c-0.2,0-0.3-0.1-0.3-0.3V82
			c0-0.2,0.1-0.3,0.3-0.3h3.4c0.2,0,0.3,0.1,0.3,0.3v4.8c0,2-1.1,3-3,3h-2.4c-2,0-3-1-3-3V78.2z"/>
		<path d="M39.2,77.6c0,0.2-0.1,0.4-0.3,0.4h-5.2v3.2h3.9c0.2,0,0.3,0.1,0.3,0.4v2.1c0,0.2-0.1,0.4-0.3,0.4h-3.9v3.1h5.2
			c0.3,0,0.3,0.1,0.3,0.3v2.1c0,0.2-0.1,0.3-0.3,0.3h-7.7c-0.2,0-0.3-0.1-0.3-0.3v-14c0-0.2,0.1-0.3,0.3-0.3h7.7
			c0.3,0,0.3,0.1,0.3,0.3V77.6z"/>
		<path d="M55,80.4c0,0.2-0.1,0.3-0.3,0.3h-2c-0.2,0-0.3-0.1-0.3-0.3v-1.7c0-0.5-0.3-0.8-0.8-0.8h-1.3c-0.6,0-0.8,0.3-0.8,0.8v7.6
			c0,0.6,0.3,0.8,0.8,0.8h1.3c0.5,0,0.8-0.3,0.8-0.8v-1.8c0-0.2,0.1-0.3,0.3-0.3h2c0.2,0,0.3,0.1,0.3,0.3v2.3c0,2-1.1,3-3,3h-2.4
			c-2,0-3-1-3-3v-8.7c0-2,1.1-3,3-3h2.4c2,0,3,1,3,3V80.4z"/>
		<path d="M57.1,78.2c0-2,1-3,3-3h2.4c2,0,3,1,3,3v8.7c0,2-1,3-3,3h-2.4c-2,0-3-1-3-3V78.2z M62,87.1c0.5,0,0.8-0.3,0.8-0.8v-7.6
			c0-0.5-0.3-0.8-0.8-0.8h-1.3c-0.5,0-0.8,0.3-0.8,0.8v7.6c0,0.6,0.3,0.8,0.8,0.8H62z"/>
		<path d="M75.5,75.1c0.2,0,0.4,0.2,0.4,0.4v11.3c0,2-1,3-3,3h-2.4c-2,0-3-1-3-3V75.6c0-0.2,0.2-0.4,0.4-0.4h2
			c0.2,0,0.4,0.2,0.4,0.4v10.7c0,0.6,0.3,0.8,0.8,0.8h1.1c0.5,0,0.8-0.3,0.8-0.8V75.6c0-0.2,0.2-0.4,0.4-0.4H75.5z"/>
		<path d="M80.9,87.1h4.2c0.2,0,0.3,0.1,0.3,0.3v2.1c0,0.2-0.1,0.3-0.3,0.3h-6.7c-0.2,0-0.3-0.1-0.3-0.3v-14c0-0.2,0.1-0.3,0.3-0.3
			h2.2c0.2,0,0.3,0.1,0.3,0.3V87.1z"/>
		<path d="M87.5,75.5c0-0.2,0.1-0.3,0.3-0.3h5c2,0,3,1.1,3,3v8.6c0,2-1,3-3,3h-5c-0.2,0-0.3-0.1-0.3-0.3V75.5z M92.3,87.1
			c0.5,0,0.8-0.3,0.8-0.8v-7.5c0-0.6-0.3-0.9-0.8-0.9h-1.9v9.2H92.3z"/>
		<path d="M111.9,75.1c0.2,0,0.3,0.1,0.3,0.3v14c0,0.2-0.1,0.3-0.3,0.3h-1.7c-0.2,0-0.3-0.1-0.4-0.3l-3.9-8v8c0,0.2-0.1,0.3-0.3,0.3
			h-2c-0.2,0-0.3-0.1-0.3-0.3v-14c0-0.2,0.1-0.3,0.3-0.3h1.7c0.2,0,0.3,0.1,0.4,0.3l3.9,8v-8c0-0.2,0.1-0.3,0.3-0.3H111.9z"/>
		<path d="M114.3,78.2c0-2,1-3,3-3h2.4c2,0,3,1,3,3v8.7c0,2-1,3-3,3h-2.4c-2,0-3-1-3-3V78.2z M119.2,87.1c0.5,0,0.8-0.3,0.8-0.8
			v-7.6c0-0.5-0.3-0.8-0.8-0.8h-1.3c-0.5,0-0.8,0.3-0.8,0.8v7.6c0,0.6,0.3,0.8,0.8,0.8H119.2z"/>
		<path d="M132.5,75.1c0.2,0,0.3,0.1,0.3,0.3v2.1c0,0.2-0.1,0.3-0.3,0.3H130v11.6c0,0.2-0.1,0.3-0.3,0.3h-2.2
			c-0.2,0-0.3-0.1-0.3-0.3V77.9h-2.4c-0.2,0-0.3-0.1-0.3-0.3v-2.1c0-0.2,0.1-0.3,0.3-0.3H132.5z"/>
		<path d="M148.2,81c0,0.8-0.6,1.4-1.3,1.5v0c0.8,0.1,1.3,0.7,1.3,1.5v2.8c0,2-1.1,3-3,3h-5c-0.2,0-0.3-0.1-0.3-0.3v-14
			c0-0.2,0.1-0.3,0.3-0.3h5c2,0,3,1,3,3V81z M145.5,78.6c0-0.5-0.3-0.8-0.8-0.8h-2.3v3.3h2.3c0.5,0,0.8-0.3,0.8-0.8V78.6z
			 M145.5,84.7c0-0.5-0.3-0.8-0.8-0.8h-2.3v3.3h2.3c0.5,0,0.8-0.3,0.8-0.8V84.7z"/>
		<path d="M158.6,77.6c0,0.2-0.1,0.4-0.3,0.4h-5.2v3.2h3.9c0.2,0,0.3,0.1,0.3,0.4v2.1c0,0.2-0.1,0.4-0.3,0.4h-3.9v3.1h5.2
			c0.3,0,0.3,0.1,0.3,0.3v2.1c0,0.2-0.1,0.3-0.3,0.3h-7.7c-0.2,0-0.3-0.1-0.3-0.3v-14c0-0.2,0.1-0.3,0.3-0.3h7.7
			c0.3,0,0.3,0.1,0.3,0.3V77.6z"/>
		<path d="M174.4,77.6c0,0.2-0.1,0.3-0.3,0.3h-5.2v3.6h3.9c0.2,0,0.3,0.1,0.3,0.3v2.1c0,0.2-0.1,0.3-0.3,0.3h-3.9v5.2
			c0,0.2-0.1,0.3-0.3,0.3h-2.2c-0.2,0-0.3-0.1-0.3-0.3v-14c0-0.2,0.1-0.3,0.3-0.3h7.7c0.2,0,0.3,0.1,0.3,0.3V77.6z"/>
		<path d="M175.9,78.2c0-2,1-3,3-3h2.4c2,0,3,1,3,3v8.7c0,2-1,3-3,3h-2.4c-2,0-3-1-3-3V78.2z M180.8,87.1c0.5,0,0.8-0.3,0.8-0.8
			v-7.6c0-0.5-0.3-0.8-0.8-0.8h-1.3c-0.5,0-0.8,0.3-0.8,0.8v7.6c0,0.6,0.3,0.8,0.8,0.8H180.8z"/>
		<path d="M194.3,75.1c0.2,0,0.4,0.2,0.4,0.4v11.3c0,2-1,3-3,3h-2.4c-2,0-3-1-3-3V75.6c0-0.2,0.2-0.4,0.4-0.4h2
			c0.2,0,0.4,0.2,0.4,0.4v10.7c0,0.6,0.3,0.8,0.8,0.8h1.1c0.5,0,0.8-0.3,0.8-0.8V75.6c0-0.2,0.2-0.4,0.4-0.4H194.3z"/>
		<path d="M205.5,75.1c0.2,0,0.3,0.1,0.3,0.3v14c0,0.2-0.1,0.3-0.3,0.3h-1.7c-0.2,0-0.3-0.1-0.4-0.3l-3.9-8v8c0,0.2-0.1,0.3-0.3,0.3
			h-2c-0.2,0-0.3-0.1-0.3-0.3v-14c0-0.2,0.1-0.3,0.3-0.3h1.7c0.2,0,0.3,0.1,0.4,0.3l3.9,8v-8c0-0.2,0.1-0.3,0.3-0.3H205.5z"/>
		<path d="M207.9,75.5c0-0.2,0.1-0.3,0.3-0.3h5c2,0,3,1.1,3,3v8.6c0,2-1,3-3,3h-5c-0.2,0-0.3-0.1-0.3-0.3V75.5z M212.7,87.1
			c0.5,0,0.8-0.3,0.8-0.8v-7.5c0-0.6-0.3-0.9-0.8-0.9h-1.9v9.2H212.7z"/>
	</g>
</g>
</svg>
